<?xml version="1.0"?>
<svg width="500" height="350" xmlns="http://www.w3.org/2000/svg" xmlns:svg="http://www.w3.org/2000/svg" version="1.1" xml:space="preserve">
 <g class="layer">
  <title>Layer 1</title>
  <path d="m14.64,202.26c-3.62,-6.22 -4.97,-12.59 -4.95,-19.42c0.08,-37.33 -0.03,-74.66 0.07,-111.99c0.05,-20.11 15.66,-36.05 35.82,-36.79c4.83,-0.18 9.66,-0.06 14.5,-0.06c70.66,-0.01 141.32,-0.02 211.98,0.01c19.76,0.01 34.75,11.82 38.47,30.35c0.58,2.9 0.54,5.96 0.54,8.95c0.04,24.83 0.03,49.66 0.03,74.5c0,1.63 0,3.27 0,5.81c2.06,-1.22 3.55,-2.07 5.01,-2.98c51.91,-32.45 118.6,-4.28 131.33,55.53c0.9,4.22 1.37,8.57 1.53,12.87c0.13,3.26 1.08,4.53 4.53,4.88c20.39,2.07 36.47,18.15 38.7,37.02c3.03,25.64 -14.44,43.11 -31.1,47.4c-4.13,1.07 -8.53,1.59 -12.81,1.6c-57.16,0.1 -114.32,0.07 -171.48,0.06c-45.3,-0.01 -76.41,-43.05 -62.18,-86.02c0.26,-0.77 0.42,-1.57 0.77,-2.85c-1.87,-0.11 -3.42,-0.27 -4.98,-0.27c-23.33,-0.02 -46.66,-0.1 -69.99,0.1c-2.55,0.03 -5.5,1.14 -7.55,2.7c-9.66,7.37 -19,15.17 -28.65,22.56c-1.58,1.21 -4.13,1.15 -6.23,1.67c-0.3,-1.85 -1.06,-3.77 -0.83,-5.56c0.87,-6.92 2.06,-13.8 3.25,-21.49c-2.14,0 -3.88,0 -5.62,0c-15.5,0 -31,0.08 -46.5,-0.02c-14.36,-0.1 -25.71,-5.92 -33.66,-18.56m290.03,-72.76c0,-18.67 0.13,-37.33 -0.03,-56c-0.17,-19.21 -12.65,-32.55 -31.01,-32.58c-75.5,-0.15 -151,-0.15 -226.49,-0.01c-18.13,0.03 -31,13.41 -31.01,31.47c-0.03,36.17 -0.03,72.33 0,108.5c0.01,20.27 12.85,33.08 33.12,33.11c16,0.03 32,-0.01 48,0.02c8.03,0.01 10.75,3.36 9.42,11.35c-0.6,3.59 -1.11,7.2 -1.81,11.79c8.87,-7.06 16.63,-13.61 24.83,-19.56c2.73,-1.99 6.57,-3.4 9.92,-3.44c25.16,-0.28 50.33,-0.1 75.5,-0.26c1.79,-0.01 4.33,-0.99 5.25,-2.36c15.23,-22.91 36.37,-33.25 63.83,-30.74c1.39,0.12 3.36,-0.92 4.3,-2.05c4.59,-5.47 9.07,-11.04 13.27,-16.8c1.44,-1.98 2.68,-4.58 2.78,-6.95c0.34,-8.15 0.13,-16.32 0.13,-25.49m-28.77,118.88c-2.43,6.67 -4.87,13.34 -7.42,20.33c7.14,0 13.68,0 20.1,0c0.98,-2.95 1.85,-5.6 2.69,-8.13c7.32,0 14.28,0 21.25,0c0.95,2.87 1.83,5.54 2.7,8.19c6.91,0 13.65,0 20.81,0c-5.41,-14.83 -10.65,-29.33 -16,-43.8c-2.11,-5.72 -2.96,-13.57 -7.13,-16.41c-4.24,-2.9 -11.88,-0.64 -18.01,-0.99c-3.23,-0.18 -4.67,1.02 -5.71,3.99c-4.23,12.06 -8.7,24.05 -13.28,36.82m120.45,-11.86c4.7,-17.73 -3.72,-28.85 -21.87,-28.87c-7.66,-0.01 -15.33,0 -22.99,0c-2.58,0 -5.16,0 -7.6,0c0,20.89 0,40.96 0,61.08c6.57,0 12.83,0 19.49,0c0,-6.52 0,-12.78 0,-19.57c5.02,0 9.64,0 14.25,0c8.72,0.02 14.95,-3.82 18.72,-12.64m32.21,6.98c0,-11.88 0,-23.77 0,-35.55c-7.06,0 -13.28,0 -19.62,0c0,20.42 0,40.49 0,60.74c6.55,0 12.91,0 19.62,0c0,-8.27 0,-16.23 0,-25.19z" fill="#096056" id="svg_1" opacity="1"/>
  <path d="m304.67,130c0,8.67 0.21,16.84 -0.13,24.99c-0.1,2.37 -1.34,4.97 -2.78,6.95c-4.2,5.76 -8.68,11.33 -13.27,16.8c-0.94,1.13 -2.91,2.17 -4.3,2.05c-27.46,-2.51 -48.6,7.83 -63.83,30.74c-0.92,1.37 -3.46,2.35 -5.25,2.36c-25.17,0.16 -50.34,-0.02 -75.5,0.26c-3.35,0.04 -7.19,1.45 -9.92,3.44c-8.2,5.95 -15.96,12.5 -24.83,19.56c0.7,-4.59 1.21,-8.2 1.81,-11.79c1.33,-7.99 -1.39,-11.34 -9.42,-11.35c-16,-0.03 -32,0.01 -48,-0.02c-20.27,-0.03 -33.11,-12.84 -33.12,-33.11c-0.03,-36.17 -0.03,-72.33 0,-108.5c0.01,-18.06 12.88,-31.44 31.01,-31.47c75.49,-0.14 150.99,-0.14 226.49,0.01c18.36,0.03 30.84,13.37 31.01,32.58c0.16,18.67 0.03,37.33 0.03,56.5m-202.85,-5.5c0,-5.91 0,-11.82 0,-17.88c-5.95,0 -11.21,0 -16.93,0c0,1.87 0,3.49 0,5.12c-0.01,8.65 0.14,17.3 -0.07,25.95c-0.15,6.22 -3.51,9.44 -9.2,9.48c-5.78,0.04 -9.04,-3.01 -9.31,-9.32c-0.26,-6.31 -0.08,-12.64 -0.09,-18.97c-0.01,-4.07 0,-8.14 0,-12.17c-6.03,0 -11.27,0 -16.48,0c0,11.94 -0.38,23.56 0.13,35.14c0.37,8.33 5.63,13.6 13.41,16.21c7.79,2.61 15.7,2.62 23.56,0.36c8.75,-2.52 13.85,-8.39 14.69,-17.47c0.47,-5.11 0.22,-10.3 0.29,-16.45m144.45,-2.77c-6.61,9.37 -13.33,18.67 -19.76,28.17c-1.63,2.41 -2.32,5.45 -3.66,8.74c18.12,0 34.96,0 51.64,0c0,-4.26 0,-8.15 0,-12.53c-8.08,0 -15.78,0 -24.21,0c1.42,-2.18 2.34,-3.69 3.36,-5.13c6.12,-8.7 12.39,-17.3 18.31,-26.14c1.48,-2.2 1.83,-5.15 2.87,-8.26c-17.06,0 -32.81,0 -48.74,0c0,4.23 0,8.25 0,12.47c6.5,0 12.65,-0.04 18.8,0.03c1.17,0.01 3.69,-0.77 1.39,2.65m-116.17,-15.35c-1.37,1.31 -3.38,2.38 -4,3.99c-4.52,11.77 -8.76,23.65 -13.07,35.51c-1.52,4.17 -2.99,8.37 -4.59,12.84c6.11,0 11.67,0 17.66,0c-0.55,-7.08 3.77,-7.64 8.99,-7.05c1.31,0.15 2.69,0.2 3.98,-0.01c5.31,-0.89 8.57,0.91 9.14,6.57c0.02,0.22 0.44,0.41 0.64,0.59c5.64,0 11.24,0 17.32,0c-5.96,-16.36 -11.91,-32.35 -17.56,-48.45c-1.17,-3.32 -2.82,-4.32 -6.14,-4.06c-3.81,0.29 -7.65,0.07 -12.37,0.07m75.39,-0.02c-12.23,0 -24.47,0 -36.63,0c0,5 0,9.2 0,13.82c5.83,0 11.25,0 17.12,0c0,13.14 0,25.86 0,38.61c5.75,0 11,0 16.74,0c0,-12.93 0,-25.65 0,-39.01c6,0 11.55,0 16.92,0c0,-4.75 0,-8.85 0,-13.42c-4.57,0 -8.86,0 -14.15,0z" fill="#FEFEFE" id="svg_2" opacity="1"/>
  <path d="m276,248c4.48,-12.39 8.95,-24.38 13.18,-36.44c1.04,-2.97 2.48,-4.17 5.71,-3.99c6.13,0.35 13.77,-1.91 18.01,0.99c4.17,2.84 5.02,10.69 7.13,16.41c5.35,14.47 10.59,28.97 16,43.8c-7.16,0 -13.9,0 -20.81,0c-0.87,-2.65 -1.75,-5.32 -2.7,-8.19c-6.97,0 -13.93,0 -21.25,0c-0.84,2.53 -1.71,5.18 -2.69,8.13c-6.42,0 -12.96,0 -20.1,0c2.55,-6.99 4.99,-13.66 7.52,-20.71m20.89,-6.85c-0.45,1.68 -0.9,3.36 -1.39,5.19c4.53,0 8.43,0 12.93,0c-2.11,-7.13 -4.09,-13.78 -6.07,-20.43c-0.32,0.06 -0.64,0.13 -0.96,0.2c-1.45,4.76 -2.9,9.51 -4.51,15.04z" fill="#FCFDFD" id="svg_3" opacity="1"/>
  <path d="m396.21,236.89c-3.63,8.45 -9.86,12.29 -18.58,12.27c-4.61,0 -9.23,0 -14.25,0c0,6.79 0,13.05 0,19.57c-6.66,0 -12.92,0 -19.49,0c0,-20.12 0,-40.19 0,-61.08c2.44,0 5.02,0 7.6,0c7.66,0 15.33,-0.01 22.99,0c18.15,0.02 26.57,11.14 21.73,29.24m-29.55,-14.79c-1.14,0.77 -3.15,1.43 -3.25,2.31c-0.39,3.36 -0.16,6.8 -0.16,10.42c3.47,0 6.27,0.18 9.04,-0.04c3.82,-0.32 5.43,-2.84 5.4,-6.44c-0.03,-3.4 -1.64,-5.69 -5.19,-6.11c-1.64,-0.2 -3.3,-0.1 -5.84,-0.14z" fill="#FEFEFE" id="svg_4" opacity="1" transform="matrix(1 0 0 1 0 0)"/>
  <path d="m428.56,244c0,8.46 0,16.42 0,24.69c-6.71,0 -13.07,0 -19.62,0c0,-20.25 0,-40.32 0,-60.74c6.34,0 12.56,0 19.62,0c0,11.78 0,23.67 0,36.05z" fill="#F9FBFB" id="svg_5" opacity="1" transform="matrix(1 0 0 1 0 0)"/>
  <path d="m101.82,125c-0.07,5.65 0.18,10.84 -0.29,15.95c-0.84,9.08 -5.94,14.95 -14.69,17.47c-7.86,2.26 -15.77,2.25 -23.56,-0.36c-7.78,-2.61 -13.04,-7.88 -13.41,-16.21c-0.51,-11.58 -0.13,-23.2 -0.13,-35.14c5.21,0 10.45,0 16.48,0c0,4.03 -0.01,8.1 0,12.17c0.01,6.33 -0.17,12.66 0.09,18.97c0.27,6.31 3.53,9.36 9.31,9.32c5.69,-0.04 9.05,-3.26 9.2,-9.48c0.21,-8.65 0.06,-17.3 0.07,-25.95c0,-1.63 0,-3.25 0,-5.12c5.72,0 10.98,0 16.93,0c0,6.06 0,11.97 0,18.38z" fill="#0E6259" id="svg_6" opacity="1"/>
  <path d="m246.5,121.44c2.07,-3.13 -0.45,-2.35 -1.62,-2.36c-6.15,-0.07 -12.3,-0.03 -18.8,-0.03c0,-4.22 0,-8.24 0,-12.47c15.93,0 31.68,0 48.74,0c-1.04,3.11 -1.39,6.06 -2.87,8.26c-5.92,8.84 -12.19,17.44 -18.31,26.14c-1.02,1.44 -1.94,2.95 -3.36,5.13c8.43,0 16.13,0 24.21,0c0,4.38 0,8.27 0,12.53c-16.68,0 -33.52,0 -51.64,0c1.34,-3.29 2.03,-6.33 3.66,-8.74c6.43,-9.5 13.15,-18.8 19.99,-28.46z" fill="#0D6258" id="svg_7" opacity="1"/>
  <path d="m130.54,106.38c4.28,0 8.12,0.22 11.93,-0.07c3.32,-0.26 4.97,0.74 6.14,4.06c5.65,16.1 11.6,32.09 17.56,48.45c-6.08,0 -11.68,0 -17.32,0c-0.2,-0.18 -0.62,-0.37 -0.64,-0.59c-0.57,-5.66 -3.83,-7.46 -9.14,-6.57c-1.29,0.21 -2.67,0.16 -3.98,0.01c-5.22,-0.59 -9.54,-0.03 -8.99,7.05c-5.99,0 -11.55,0 -17.66,0c1.6,-4.47 3.07,-8.67 4.59,-12.84c4.31,-11.86 8.55,-23.74 13.07,-35.51c0.62,-1.61 2.63,-2.68 4.44,-3.99m2.28,33.49c3.07,0 6.13,0 9.81,0c-1.87,-6.34 -3.54,-11.97 -5.2,-17.61c-0.43,0.05 -0.86,0.11 -1.3,0.16c-1.39,5.72 -2.77,11.44 -3.31,17.45z" fill="#0C6158" id="svg_8" opacity="1"/>
  <path d="m205.99,106.36c4.79,0 9.08,0 13.65,0c0,4.57 0,8.67 0,13.42c-5.37,0 -10.92,0 -16.92,0c0,13.36 0,26.08 0,39.01c-5.74,0 -10.99,0 -16.74,0c0,-12.75 0,-25.47 0,-38.61c-5.87,0 -11.29,0 -17.12,0c0,-4.62 0,-8.82 0,-13.82c12.16,0 24.4,0 37.13,0z" fill="#10645A" id="svg_9" opacity="1"/>
  <path d="m296.97,240.76c1.53,-5.14 2.98,-9.89 4.43,-14.65c0.32,-0.07 0.64,-0.14 0.96,-0.2c1.98,6.65 3.96,13.3 6.07,20.43c-4.5,0 -8.4,0 -12.93,0c0.49,-1.83 0.94,-3.51 1.47,-5.58z" fill="#196A60" id="svg_10" opacity="1"/>
  <path d="m367.1,222.1c2.1,0.04 3.76,-0.06 5.4,0.14c3.55,0.42 5.16,2.71 5.19,6.11c0.03,3.6 -1.58,6.12 -5.4,6.44c-2.77,0.22 -5.57,0.04 -9.04,0.04c0,-3.62 -0.23,-7.06 0.16,-10.42c0.1,-0.88 2.11,-1.54 3.69,-2.31z" fill="#196A60" id="svg_11" opacity="1"/>
  <path d="m132.4,139.72c0.96,-5.86 2.34,-11.58 3.73,-17.3c0.44,-0.05 0.87,-0.11 1.3,-0.16c1.66,5.64 3.33,11.27 5.2,17.61c-3.68,0 -6.74,0 -10.23,-0.15z" fill="#F1F6F5" id="svg_12" opacity="1"/>
 </g>
</svg>